<svg width="584" height="151" viewBox="0 0 584 151" fill="none" xmlns="http://www.w3.org/2000/svg">
<path d="M36.352 123.064C35.328 123.064 34.496 122.765 33.856 122.168C33.2587 121.571 32.96 120.76 32.96 119.736V47.16H5.76C4.736 47.16 3.904 46.8613 3.264 46.264C2.66667 45.6667 2.368 44.856 2.368 43.832C2.368 42.808 2.66667 41.9973 3.264 41.4C3.904 40.76 4.736 40.44 5.76 40.44H66.944C67.968 40.44 68.7787 40.76 69.376 41.4C69.9733 41.9973 70.272 42.808 70.272 43.832C70.272 44.856 69.9733 45.6667 69.376 46.264C68.7787 46.8613 67.968 47.16 66.944 47.16H39.68V119.736C39.68 120.717 39.36 121.528 38.72 122.168C38.1227 122.765 37.3333 123.064 36.352 123.064ZM75.46 95.352V100.024C75.46 106.04 76.6547 110.264 79.044 112.696C81.476 115.085 85.7427 116.28 91.844 116.28H102.34C107.716 116.28 111.62 115.597 114.052 114.232C116.527 112.824 117.999 110.413 118.468 107C118.639 105.933 118.98 105.123 119.492 104.568C120.047 104.013 120.879 103.736 121.988 103.736C123.097 103.736 123.929 104.056 124.484 104.696C125.081 105.293 125.316 106.147 125.188 107.256C124.633 112.632 122.479 116.6 118.724 119.16C114.969 121.72 109.508 123 102.34 123H91.844C83.8653 123 78.02 121.165 74.308 117.496C70.596 113.784 68.74 107.96 68.74 100.024V85.56C68.74 77.496 70.596 71.6293 74.308 67.96C78.02 64.248 83.8653 62.4347 91.844 62.52H102.34C110.319 62.52 116.143 64.376 119.812 68.088C123.524 71.7573 125.38 77.5813 125.38 85.56V91.96C125.38 94.2213 124.271 95.352 122.052 95.352H75.46ZM91.844 69.24C85.7427 69.1547 81.476 70.328 79.044 72.76C76.6547 75.1493 75.46 79.416 75.46 85.56V88.632H118.66V85.56C118.66 79.4587 117.465 75.2133 115.076 72.824C112.687 70.4347 108.441 69.24 102.34 69.24H91.844ZM165.577 123C158.921 123 154.036 121.464 150.921 118.392C147.849 115.277 146.313 110.392 146.313 103.736C146.313 97.08 147.87 92.1947 150.985 89.08C154.1 85.9653 158.964 84.408 165.577 84.408H194.697C194.612 78.776 193.332 74.8507 190.857 72.632C188.425 70.3707 184.265 69.24 178.377 69.24H170.953C165.534 69.24 161.566 69.816 159.049 70.968C156.532 72.12 154.974 74.0827 154.377 76.856C154.078 77.9227 153.673 78.712 153.161 79.224C152.692 79.6933 151.924 79.928 150.857 79.928C149.748 79.928 148.873 79.6293 148.233 79.032C147.636 78.392 147.422 77.5387 147.593 76.472C148.148 71.608 150.345 68.0667 154.185 65.848C158.068 63.6293 163.657 62.52 170.953 62.52H178.377C186.356 62.52 192.18 64.376 195.849 68.088C199.561 71.7573 201.417 77.5813 201.417 85.56V119.608C201.417 121.869 200.308 123 198.089 123C195.828 123 194.697 121.869 194.697 119.608V113.272C190.601 119.757 183.284 123 172.745 123H165.577ZM165.577 116.28H172.745C176.884 116.28 180.51 115.832 183.625 114.936C186.782 113.997 189.321 112.504 191.241 110.456C193.161 108.408 194.313 105.677 194.697 102.264V91.128H165.577C160.841 91.128 157.556 92.0453 155.721 93.88C153.929 95.672 153.033 98.9573 153.033 103.736C153.033 108.472 153.929 111.757 155.721 113.592C157.556 115.384 160.841 116.28 165.577 116.28Z" fill="white"/>
<path d="M335.36 123C333.099 123 331.968 121.869 331.968 119.608V43.896C331.968 41.6347 333.099 40.504 335.36 40.504H381.504C382.571 40.504 383.381 40.8027 383.936 41.4C384.533 41.9547 384.832 42.7867 384.832 43.896C384.832 46.1147 383.723 47.224 381.504 47.224H338.688V77.88H367.872C370.133 77.88 371.264 78.9893 371.264 81.208C371.264 83.4693 370.133 84.6 367.872 84.6H338.688V119.608C338.688 121.869 337.579 123 335.36 123ZM414.443 123C408.384 123 403.926 121.592 401.067 118.776C398.251 115.96 396.843 111.544 396.843 105.528V37.56C396.843 35.3413 397.974 34.232 400.235 34.232C402.454 34.232 403.563 35.3413 403.563 37.56V105.528C403.563 109.667 404.331 112.504 405.867 114.04C407.403 115.533 410.24 116.28 414.379 116.28C416.683 116.28 417.835 117.389 417.835 119.608C417.878 121.869 416.747 123 414.443 123ZM452.969 123C444.99 123 439.145 121.165 435.433 117.496C431.721 113.784 429.865 107.96 429.865 100.024V85.56C429.865 77.496 431.721 71.6293 435.433 67.96C439.145 64.248 444.99 62.4347 452.969 62.52H463.465C471.444 62.52 477.268 64.376 480.937 68.088C484.649 71.7573 486.505 77.5813 486.505 85.56V99.896C486.505 107.875 484.649 113.72 480.937 117.432C477.268 121.144 471.444 123 463.465 123H452.969ZM436.585 100.024C436.585 106.04 437.78 110.264 440.169 112.696C442.601 115.085 446.868 116.28 452.969 116.28H463.465C469.566 116.28 473.812 115.085 476.201 112.696C478.59 110.264 479.785 105.997 479.785 99.896V85.56C479.785 79.4587 478.59 75.2133 476.201 72.824C473.812 70.4347 469.566 69.24 463.465 69.24H452.969C448.873 69.1973 445.63 69.688 443.241 70.712C440.852 71.736 439.145 73.4427 438.121 75.832C437.097 78.2213 436.585 81.464 436.585 85.56V100.024ZM519.466 123C517.461 123 516.159 122.083 515.562 120.248L497.514 67.064C496.789 64.888 497.493 63.4587 499.626 62.776C501.717 62.136 503.103 62.84 503.786 64.888L521.322 116.28H518.634L535.402 65.848C535.999 64.056 537.279 63.16 539.242 63.16C541.119 63.16 542.335 64.0773 542.89 65.912L558.57 116.152H555.754L574.186 64.888C575.039 62.712 576.49 62.008 578.538 62.776C580.671 63.5867 581.354 65.0373 580.586 67.128L560.81 120.248C560.127 122.083 558.805 123 556.842 123C554.666 123 553.301 122.083 552.746 120.248L538.218 73.72H539.498L523.498 120.248C523.157 121.315 522.623 122.04 521.898 122.424C521.173 122.808 520.362 123 519.466 123Z" fill="white"/>
<path d="M299.426 72.8233C290.268 72.897 282.931 79.8338 283.039 88.317L283.313 109.821C283.421 118.304 276.084 125.241 266.926 125.315C257.768 125.389 250.257 118.571 250.149 110.088L249.875 88.5841C249.731 77.2133 256.274 67.2316 266.119 61.8401C270.964 59.187 276.608 57.6454 282.649 57.5967C300.964 57.4492 315.987 71.0835 316.203 88.0499C316.095 79.5667 308.584 72.7495 299.426 72.8233Z" fill="#FF2056" stroke="white" stroke-width="5"/>
<path d="M299.505 72.8226C290.39 72.8961 283.089 79.8325 283.197 88.3157L283.471 109.82C283.578 118.303 291.055 125.121 300.169 125.047C309.283 124.974 316.584 118.037 316.477 109.554L316.203 88.0499C316.095 79.5667 308.619 72.7492 299.505 72.8226Z" fill="#FF2056"/>
<path d="M217.185 88.8474C216.969 71.8811 231.572 58.0081 249.8 57.8613C255.812 57.8129 261.468 59.2635 266.356 61.8382C256.558 67.2293 250.047 77.2107 250.191 88.5816L250.465 110.086C250.572 118.569 243.271 125.505 234.157 125.579C225.043 125.652 217.566 118.835 217.459 110.352L217.185 88.8474Z" fill="#FF2056"/>
<path d="M299.505 72.8226C290.39 72.8961 283.089 79.8325 283.197 88.3157L283.471 109.82C283.578 118.303 291.055 125.121 300.169 125.047C309.283 124.974 316.584 118.037 316.477 109.554L316.203 88.0499C316.095 79.5667 308.619 72.7492 299.505 72.8226Z" stroke="white" stroke-width="5"/>
<path d="M217.185 88.8474C216.969 71.8811 231.572 58.0081 249.8 57.8613C255.812 57.8129 261.468 59.2635 266.356 61.8382C256.558 67.2293 250.047 77.2107 250.191 88.5816L250.465 110.086C250.572 118.569 243.271 125.505 234.157 125.579C225.043 125.652 217.566 118.835 217.459 110.352L217.185 88.8474Z" stroke="white" stroke-width="5"/>
</svg>
